<?xml version="1.0" standalone="no"?><!DOCTYPE svg PUBLIC "-//W3C//DTD SVG 1.1//EN" "http://www.w3.org/Graphics/SVG/1.1/DTD/svg11.dtd"><svg id="ex-comp-4" t="1532419975042" class="icon" style="" viewBox="0 0 1024 1024" version="1.1" xmlns="http://www.w3.org/2000/svg" p-id="2566" xmlns:xlink="http://www.w3.org/1999/xlink" width="128" height="128"><defs><style type="text/css"></style></defs><path d="M830.5 576.4c-17.2 0-31.2 14-31.2 31.2v15.3c0 150.7-131.1 273.4-292.6 274.3-158.9-0.8-292.9-126.1-292.9-274.3v-15.3c0-17.2-14-31.2-31.2-31.2s-31.2 14-31.2 31.2v15.3c0 184.3 157.7 334.4 352.4 336.7h5.8c194.6-2.2 352.2-152.4 352.2-336.7v-15.3c0-17.2-14-31.2-31.3-31.2z" fill="#d81e06" p-id="2567"></path><path d="M587 761c0-8.6-7-15.6-15.6-15.6s-15.6 7-15.6 15.6c0 24.7-23.1 44.8-51.5 44.8s-51.5-20.1-51.5-44.8c0-8.6-7-15.6-15.6-15.6s-15.6 7-15.6 15.6c0 41.9 37.1 76.1 82.7 76.1S587 802.9 587 761zM904.8 415.9c-27.5-129-111.9-229.8-225.9-279.5-6.8-17-23.4-29-42.7-29-8.7 0-16.7 2.6-23.7 6.7-14.1-3.4-28.6-5.9-43.3-7.9-7.7-24.2-30.1-42-56.8-42-26.7 0-49.2 17.8-56.8 42-14.7 2-29.2 4.5-43.3 7.9-6.9-4.2-15-6.7-23.7-6.7-19.4 0-35.9 12-42.7 29C231.9 186.2 147.5 287 120 415.9c-32 4.3-55.8 29.9-55.8 61.8 0 35 28.7 62.4 65.3 62.4h766c36.6 0 65.3-27.4 65.3-62.4-0.2-31.9-24-57.5-56-61.8zM621.2 153.4c0-8.2 6.7-14.9 14.9-14.9 8.1 0 14.9 6.8 14.9 14.9v79.4c0 8.1-6.8 14.9-14.9 14.9-8.2 0-14.9-6.7-14.9-14.9v-79.4z m-137.5-29.3c0-15.8 12.8-28.7 28.7-28.7 15.8 0 28.7 12.9 28.7 28.7v181.4c0 15.8-12.8 28.7-28.7 28.7-15.8 0-28.7-12.8-28.7-28.7V124.1z m-110.1 29.3c0-8.2 6.7-14.9 14.9-14.9s14.9 6.7 14.9 14.9v79.4c0 8.2-6.7 14.9-14.9 14.9s-14.9-6.7-14.9-14.9v-79.4zM172.9 477.7l4-26.6c16.1-107.4 78.4-193.5 165.6-242.3v24c0 25.4 20.7 46.1 46.1 46.1 25.4 0 46.1-20.7 46.1-46.1v-59.4c5.9-1.3 11.8-2.5 17.8-3.5v135.4c0 33 26.9 59.9 59.9 59.9s59.9-26.9 59.9-59.9V169.8c6 1 11.9 2.1 17.8 3.4v59.7c0 25.4 20.7 46.1 46.1 46.1 25.4 0 46.1-20.7 46.1-46.1v-24.2c87.2 48.9 149.4 135 165.5 242.5l4 26.6H172.9z" fill="#d81e06" p-id="2568"></path></svg>